%TF.GenerationSoftware,KiCad,Pcbnew,9.0.5*%
%TF.CreationDate,2026-02-24T14:51:08-05:00*%
%TF.ProjectId,bigpulse,62696770-756c-4736-952e-6b696361645f,rev?*%
%TF.SameCoordinates,Original*%
%TF.FileFunction,Paste,Top*%
%TF.FilePolarity,Positive*%
%FSLAX46Y46*%
G04 Gerber Fmt 4.6, Leading zero omitted, Abs format (unit mm)*
G04 Created by KiCad (PCBNEW 9.0.5) date 2026-02-24 14:51:08*
%MOMM*%
%LPD*%
G01*
G04 APERTURE LIST*
G04 Aperture macros list*
%AMRoundRect*
0 Rectangle with rounded corners*
0 $1 Rounding radius*
0 $2 $3 $4 $5 $6 $7 $8 $9 X,Y pos of 4 corners*
0 Add a 4 corners polygon primitive as box body*
4,1,4,$2,$3,$4,$5,$6,$7,$8,$9,$2,$3,0*
0 Add four circle primitives for the rounded corners*
1,1,$1+$1,$2,$3*
1,1,$1+$1,$4,$5*
1,1,$1+$1,$6,$7*
1,1,$1+$1,$8,$9*
0 Add four rect primitives between the rounded corners*
20,1,$1+$1,$2,$3,$4,$5,0*
20,1,$1+$1,$4,$5,$6,$7,0*
20,1,$1+$1,$6,$7,$8,$9,0*
20,1,$1+$1,$8,$9,$2,$3,0*%
%AMFreePoly0*
4,1,25,-1.500000,1.420000,-1.360000,1.280000,-1.205000,1.155000,-1.035000,1.045000,-0.860000,0.950000,-0.675000,0.875000,-0.480000,0.820000,-0.280000,0.780000,-0.085000,0.765000,0.085000,0.765000,0.280000,0.780000,0.480000,0.820000,0.675000,0.875000,0.860000,0.950000,1.035000,1.045000,1.205000,1.155000,1.360000,1.280000,1.500000,1.420000,1.645000,1.595000,3.555000,1.595000,
3.555000,-0.755000,-3.555000,-0.755000,-3.555000,1.595000,-1.645000,1.595000,-1.500000,1.420000,-1.500000,1.420000,$1*%
G04 Aperture macros list end*
%ADD10R,1.750000X3.000000*%
%ADD11RoundRect,0.250000X-2.450000X0.650000X-2.450000X-0.650000X2.450000X-0.650000X2.450000X0.650000X0*%
%ADD12RoundRect,0.250000X-0.325000X-1.100000X0.325000X-1.100000X0.325000X1.100000X-0.325000X1.100000X0*%
%ADD13RoundRect,0.250000X-0.400000X-0.625000X0.400000X-0.625000X0.400000X0.625000X-0.400000X0.625000X0*%
%ADD14RoundRect,0.250000X-1.000000X-0.900000X1.000000X-0.900000X1.000000X0.900000X-1.000000X0.900000X0*%
%ADD15RoundRect,0.250000X-0.650000X-2.450000X0.650000X-2.450000X0.650000X2.450000X-0.650000X2.450000X0*%
%ADD16RoundRect,0.249999X-0.450001X-1.425001X0.450001X-1.425001X0.450001X1.425001X-0.450001X1.425001X0*%
%ADD17RoundRect,0.200000X-0.200000X-0.275000X0.200000X-0.275000X0.200000X0.275000X-0.200000X0.275000X0*%
%ADD18RoundRect,0.250000X0.400000X0.625000X-0.400000X0.625000X-0.400000X-0.625000X0.400000X-0.625000X0*%
%ADD19RoundRect,0.250000X0.750000X0.750000X-0.750000X0.750000X-0.750000X-0.750000X0.750000X-0.750000X0*%
%ADD20RoundRect,0.250000X0.950000X0.500000X-0.950000X0.500000X-0.950000X-0.500000X0.950000X-0.500000X0*%
%ADD21RoundRect,0.250000X0.275000X0.500000X-0.275000X0.500000X-0.275000X-0.500000X0.275000X-0.500000X0*%
%ADD22RoundRect,0.250000X0.650000X2.450000X-0.650000X2.450000X-0.650000X-2.450000X0.650000X-2.450000X0*%
%ADD23RoundRect,0.225000X-0.225000X-0.250000X0.225000X-0.250000X0.225000X0.250000X-0.225000X0.250000X0*%
%ADD24C,1.730000*%
%ADD25FreePoly0,180.000000*%
%ADD26FreePoly0,0.000000*%
%ADD27RoundRect,0.250000X-0.950000X-0.500000X0.950000X-0.500000X0.950000X0.500000X-0.950000X0.500000X0*%
%ADD28RoundRect,0.250000X-0.275000X-0.500000X0.275000X-0.500000X0.275000X0.500000X-0.275000X0.500000X0*%
%ADD29RoundRect,0.172500X-0.172500X-0.422500X0.172500X-0.422500X0.172500X0.422500X-0.172500X0.422500X0*%
%ADD30RoundRect,0.076250X-0.368250X-0.076250X0.368250X-0.076250X0.368250X0.076250X-0.368250X0.076250X0*%
%ADD31RoundRect,0.250000X0.500000X-0.950000X0.500000X0.950000X-0.500000X0.950000X-0.500000X-0.950000X0*%
%ADD32RoundRect,0.250000X0.500000X-0.275000X0.500000X0.275000X-0.500000X0.275000X-0.500000X-0.275000X0*%
%ADD33RoundRect,0.250000X-0.350000X-0.625000X0.350000X-0.625000X0.350000X0.625000X-0.350000X0.625000X0*%
%ADD34RoundRect,0.250000X-0.550000X-0.625000X0.550000X-0.625000X0.550000X0.625000X-0.550000X0.625000X0*%
%ADD35RoundRect,0.253000X-0.347000X-0.622000X0.347000X-0.622000X0.347000X0.622000X-0.347000X0.622000X0*%
%ADD36RoundRect,0.250000X-0.312500X-1.075000X0.312500X-1.075000X0.312500X1.075000X-0.312500X1.075000X0*%
%ADD37R,1.200000X3.300000*%
%ADD38RoundRect,0.249999X-1.425001X0.450001X-1.425001X-0.450001X1.425001X-0.450001X1.425001X0.450001X0*%
G04 APERTURE END LIST*
D10*
%TO.C,LD2*%
X225310000Y-111060000D03*
X225310000Y-94060000D03*
%TD*%
D11*
%TO.C,C18*%
X165320500Y-94660000D03*
X165320500Y-99760000D03*
%TD*%
D12*
%TO.C,C7*%
X220050000Y-111500000D03*
X223000000Y-111500000D03*
%TD*%
D13*
%TO.C,R7*%
X203500000Y-104600000D03*
X206600000Y-104600000D03*
%TD*%
%TO.C,R6*%
X203400000Y-99400000D03*
X206500000Y-99400000D03*
%TD*%
D12*
%TO.C,C2*%
X220050000Y-94000000D03*
X223000000Y-94000000D03*
%TD*%
D14*
%TO.C,D1*%
X174700000Y-86200000D03*
X179000000Y-86200000D03*
%TD*%
D15*
%TO.C,C20*%
X178650000Y-91800000D03*
X183750000Y-91800000D03*
%TD*%
D16*
%TO.C,R1*%
X175700000Y-101800000D03*
X181800000Y-101800000D03*
%TD*%
D17*
%TO.C,R20*%
X152450000Y-109300000D03*
X154100000Y-109300000D03*
%TD*%
%TO.C,R24*%
X156620000Y-108190000D03*
X158270000Y-108190000D03*
%TD*%
%TO.C,R25*%
X163480000Y-107480000D03*
X165130000Y-107480000D03*
%TD*%
D18*
%TO.C,R4*%
X212400000Y-111800000D03*
X209300000Y-111800000D03*
%TD*%
D17*
%TO.C,R19*%
X152450000Y-107100000D03*
X154100000Y-107100000D03*
%TD*%
D19*
%TO.C,J2*%
X152820000Y-95050000D03*
X152820000Y-88900000D03*
X141820000Y-88900000D03*
X141820000Y-95050000D03*
%TD*%
D12*
%TO.C,C6*%
X220050000Y-108000000D03*
X223000000Y-108000000D03*
%TD*%
%TO.C,C1*%
X175450000Y-97400000D03*
X178400000Y-97400000D03*
%TD*%
D20*
%TO.C,D2*%
X215425000Y-86800000D03*
D21*
X217800000Y-86800000D03*
%TD*%
D11*
%TO.C,C17*%
X158520500Y-94560000D03*
X158520500Y-99660000D03*
%TD*%
D17*
%TO.C,R27*%
X163495000Y-109460000D03*
X165145000Y-109460000D03*
%TD*%
D22*
%TO.C,C8*%
X196700000Y-102200000D03*
X191600000Y-102200000D03*
%TD*%
D23*
%TO.C,C14*%
X152550000Y-111500000D03*
X154100000Y-111500000D03*
%TD*%
D24*
%TO.C,J1*%
X143844000Y-110200000D03*
D25*
X143844000Y-107400000D03*
D26*
X143844000Y-113000000D03*
%TD*%
D23*
%TO.C,C16*%
X152525000Y-115640000D03*
X154075000Y-115640000D03*
%TD*%
D27*
%TO.C,D6*%
X174050000Y-93800000D03*
D28*
X171675000Y-93800000D03*
%TD*%
D13*
%TO.C,R5*%
X207500000Y-109400000D03*
X210600000Y-109400000D03*
%TD*%
D29*
%TO.C,U1*%
X158815000Y-103950000D03*
X158815000Y-105370000D03*
X159645000Y-103950000D03*
X159645000Y-105370000D03*
D30*
X157124500Y-102910000D03*
X157124500Y-103910000D03*
X157124500Y-104910000D03*
X157124500Y-105410000D03*
X157124500Y-105910000D03*
X157124500Y-106410000D03*
X161335500Y-106410000D03*
X161335500Y-105910000D03*
X161335500Y-105410000D03*
X161335500Y-104910000D03*
X161335500Y-103910000D03*
X161335500Y-102910000D03*
%TD*%
D27*
%TO.C,D4*%
X174050000Y-89800000D03*
D28*
X171675000Y-89800000D03*
%TD*%
D12*
%TO.C,C5*%
X220050000Y-104500000D03*
X223000000Y-104500000D03*
%TD*%
D20*
%TO.C,D3*%
X215225000Y-117400000D03*
D21*
X217600000Y-117400000D03*
%TD*%
D15*
%TO.C,C21*%
X162100000Y-89200000D03*
X167200000Y-89200000D03*
%TD*%
D31*
%TO.C,D5*%
X171200000Y-98025000D03*
D32*
X171200000Y-100400000D03*
%TD*%
D12*
%TO.C,C3*%
X220050000Y-97500000D03*
X223000000Y-97500000D03*
%TD*%
D33*
%TO.C,RV2*%
X180700000Y-109175000D03*
D34*
X181850000Y-113225000D03*
D35*
X183000000Y-109175000D03*
%TD*%
D12*
%TO.C,C19*%
X166850000Y-114200000D03*
X169800000Y-114200000D03*
%TD*%
D17*
%TO.C,R23*%
X163490000Y-105590000D03*
X165140000Y-105590000D03*
%TD*%
D18*
%TO.C,R3*%
X212600000Y-96000000D03*
X209500000Y-96000000D03*
%TD*%
%TO.C,R12*%
X212570000Y-90460000D03*
X209470000Y-90460000D03*
%TD*%
D36*
%TO.C,R8*%
X194675000Y-96800000D03*
X197600000Y-96800000D03*
%TD*%
D37*
%TO.C,L1*%
X161450000Y-114000000D03*
X164550000Y-114000000D03*
%TD*%
D13*
%TO.C,R28*%
X203500000Y-102000000D03*
X206600000Y-102000000D03*
%TD*%
D18*
%TO.C,R2*%
X212500000Y-107000000D03*
X209400000Y-107000000D03*
%TD*%
D23*
%TO.C,C15*%
X152610000Y-113710000D03*
X154160000Y-113710000D03*
%TD*%
D38*
%TO.C,R26*%
X169200000Y-103700000D03*
X169200000Y-109800000D03*
%TD*%
D17*
%TO.C,R14*%
X210150000Y-93600000D03*
X211800000Y-93600000D03*
%TD*%
D24*
%TO.C,TP1*%
X204470000Y-93472000D03*
D25*
X204470000Y-90672000D03*
D26*
X204470000Y-96272000D03*
%TD*%
D12*
%TO.C,C4*%
X220050000Y-101000000D03*
X223000000Y-101000000D03*
%TD*%
D33*
%TO.C,RV1*%
X174050000Y-109175000D03*
D34*
X175200000Y-113225000D03*
D35*
X176350000Y-109175000D03*
%TD*%
M02*
