M48
; DRILL file {KiCad 9.0.5} date 2026-02-24T14:51:14-0500
; FORMAT={-:-/ absolute / metric / decimal}
; #@! TF.CreationDate,2026-02-24T14:51:14-05:00
; #@! TF.GenerationSoftware,Kicad,Pcbnew,9.0.5
; #@! TF.FileFunction,Plated,1,2,PTH
FMAT,2
METRIC
; #@! TA.AperFunction,Plated,PTH,ComponentDrill
T1C0.250
; #@! TA.AperFunction,Plated,PTH,ViaDrill
T2C0.300
; #@! TA.AperFunction,Plated,PTH,ComponentDrill
T3C0.500
; #@! TA.AperFunction,Plated,PTH,ComponentDrill
T4C0.650
; #@! TA.AperFunction,Plated,PTH,ComponentDrill
T5C0.750
; #@! TA.AperFunction,Plated,PTH,ComponentDrill
T6C0.800
; #@! TA.AperFunction,Plated,PTH,ComponentDrill
T7C1.143
; #@! TA.AperFunction,Plated,PTH,ComponentDrill
T8C3.700
%
G90
G05
T1
X158.679Y-103.512
X158.679Y-104.66
X158.679Y-105.807
X159.78Y-103.512
X159.78Y-104.66
X159.78Y-105.807
T2
X142.574Y-107.406
X142.574Y-112.867
X143.209Y-107.406
X143.209Y-112.867
X143.844Y-107.406
X143.844Y-112.867
X144.479Y-107.406
X144.479Y-112.867
X145.114Y-107.406
X145.114Y-112.867
X145.749Y-107.406
X145.749Y-112.867
X146.05Y-106.934
X146.05Y-112.395
X146.384Y-107.406
X146.384Y-112.867
X146.685Y-106.934
X146.685Y-112.395
X151.635Y-110.545
X153.065Y-108.685
X153.585Y-108.165
X155.67Y-96.29
X155.72Y-111.48
X155.74Y-104.98
X156.2Y-96.29
X156.84Y-101.98
X157.44Y-102.0
X161.42Y-110.64
X161.45Y-111.49
X162.36Y-103.37
X163.07Y-103.43
X163.07Y-114.02
X163.07Y-114.77
X166.39Y-102.14
X166.39Y-104.32
X166.54Y-104.84
X166.98Y-101.55
X167.89Y-101.86
X167.935Y-102.435
X170.91Y-114.2
X171.2Y-95.15
X171.2Y-95.96
X171.46Y-91.0
X171.5Y-114.35
X171.59Y-109.8
X172.01Y-106.01
X172.11Y-100.44
X172.19Y-91.0
X172.26Y-110.47
X173.03Y-85.25
X173.03Y-86.06
X173.03Y-86.74
X173.79Y-95.82
X174.87Y-91.8
X175.61Y-91.8
X176.11Y-105.61
X176.3Y-95.3
X177.01Y-95.3
X177.96Y-101.69
X178.345Y-101.305
X178.4Y-100.5
X180.06Y-91.8
X180.64Y-91.8
X183.3Y-101.9
X184.2Y-101.8
X184.8Y-101.8
X185.4Y-101.8
X201.295Y-90.551
X201.295Y-96.393
X201.93Y-90.551
X201.93Y-96.393
X202.565Y-90.551
X202.565Y-96.393
X203.2Y-90.551
X203.2Y-96.393
X203.835Y-90.551
X203.835Y-96.393
X204.47Y-90.551
X204.47Y-96.393
X205.105Y-90.551
X205.105Y-96.393
X205.74Y-90.551
X205.74Y-96.393
X206.375Y-90.551
X206.375Y-96.393
X207.01Y-90.551
X207.01Y-96.393
X207.645Y-90.551
X207.645Y-96.393
X210.4Y-92.2
X211.0Y-92.6
X211.63Y-92.285
X225.31Y-90.29
X225.31Y-91.46
X226.23Y-89.71
X227.26Y-89.71
X228.42Y-94.06
X228.98Y-94.28
X229.51Y-94.81
X230.26Y-94.81
X230.88Y-94.81
X231.6Y-95.04
T3
X187.725Y-92.075
X187.725Y-111.125
X188.538Y-90.113
X188.538Y-94.037
X188.538Y-109.163
X188.538Y-113.087
X190.5Y-89.3
X190.5Y-94.85
X190.5Y-108.35
X190.5Y-113.9
X192.462Y-90.113
X192.462Y-94.037
X192.462Y-109.163
X192.462Y-113.087
X193.275Y-92.075
X193.275Y-111.125
T4
X228.0Y-101.0
X228.0Y-103.5
X230.5Y-101.0
T5
X214.93Y-108.36
X214.93Y-113.47
X214.96Y-92.5
X214.96Y-97.5
X216.2Y-107.09
X216.2Y-112.2
X216.23Y-91.23
X216.23Y-96.23
X217.47Y-108.36
X217.47Y-113.47
X217.5Y-92.5
X217.5Y-97.5
T6
X197.18Y-107.4
X197.18Y-115.02
X199.72Y-107.4
X199.72Y-115.02
X202.26Y-107.4
X202.26Y-115.02
X204.8Y-107.4
X204.8Y-115.02
T7
X210.92Y-102.2
X213.46Y-102.2
X216.0Y-102.2
T8
X190.5Y-92.075
X190.5Y-111.125
M30
