%TF.GenerationSoftware,KiCad,Pcbnew,9.0.5*%
%TF.CreationDate,2026-02-24T14:51:08-05:00*%
%TF.ProjectId,bigpulse,62696770-756c-4736-952e-6b696361645f,rev?*%
%TF.SameCoordinates,Original*%
%TF.FileFunction,Soldermask,Bot*%
%TF.FilePolarity,Negative*%
%FSLAX46Y46*%
G04 Gerber Fmt 4.6, Leading zero omitted, Abs format (unit mm)*
G04 Created by KiCad (PCBNEW 9.0.5) date 2026-02-24 14:51:08*
%MOMM*%
%LPD*%
G01*
G04 APERTURE LIST*
G04 Aperture macros list*
%AMRoundRect*
0 Rectangle with rounded corners*
0 $1 Rounding radius*
0 $2 $3 $4 $5 $6 $7 $8 $9 X,Y pos of 4 corners*
0 Add a 4 corners polygon primitive as box body*
4,1,4,$2,$3,$4,$5,$6,$7,$8,$9,$2,$3,0*
0 Add four circle primitives for the rounded corners*
1,1,$1+$1,$2,$3*
1,1,$1+$1,$4,$5*
1,1,$1+$1,$6,$7*
1,1,$1+$1,$8,$9*
0 Add four rect primitives between the rounded corners*
20,1,$1+$1,$2,$3,$4,$5,0*
20,1,$1+$1,$4,$5,$6,$7,0*
20,1,$1+$1,$6,$7,$8,$9,0*
20,1,$1+$1,$8,$9,$2,$3,0*%
G04 Aperture macros list end*
%ADD10C,0.120000*%
%ADD11C,3.500000*%
%ADD12C,3.000000*%
%ADD13C,0.800000*%
%ADD14C,7.400000*%
%ADD15RoundRect,0.250000X0.550000X-0.550000X0.550000X0.550000X-0.550000X0.550000X-0.550000X-0.550000X0*%
%ADD16C,1.600000*%
%ADD17C,1.800000*%
%ADD18R,1.300000X1.300000*%
%ADD19C,1.300000*%
%ADD20C,1.500000*%
%ADD21R,1.651000X1.651000*%
%ADD22C,1.651000*%
G04 APERTURE END LIST*
D10*
%TO.C,J2*%
X148120000Y-88900000D02*
G75*
G02*
X146520000Y-88900000I-800000J0D01*
G01*
X146520000Y-88900000D02*
G75*
G02*
X148120000Y-88900000I800000J0D01*
G01*
X148220000Y-93400000D02*
G75*
G02*
X146420000Y-93400000I-900000J0D01*
G01*
X146420000Y-93400000D02*
G75*
G02*
X148220000Y-93400000I900000J0D01*
G01*
%TD*%
D11*
%TO.C,*%
X208860000Y-116380000D03*
%TD*%
D12*
%TO.C,LD2*%
X236810000Y-92060000D03*
X236810000Y-113060000D03*
%TD*%
D13*
%TO.C,J3*%
X187725000Y-92075000D03*
X188537779Y-90112779D03*
X188537779Y-94037221D03*
X190500000Y-89300000D03*
D14*
X190500000Y-92075000D03*
D13*
X190500000Y-94850000D03*
X192462221Y-90112779D03*
X192462221Y-94037221D03*
X193275000Y-92075000D03*
%TD*%
%TO.C,J4*%
X187725000Y-111125000D03*
X188537779Y-109162779D03*
X188537779Y-113087221D03*
X190500000Y-108350000D03*
D14*
X190500000Y-111125000D03*
D13*
X190500000Y-113900000D03*
X192462221Y-109162779D03*
X192462221Y-113087221D03*
X193275000Y-111125000D03*
%TD*%
D15*
%TO.C,IC1*%
X197180000Y-115020000D03*
D16*
X199720000Y-115020000D03*
X202260000Y-115020000D03*
X204800000Y-115020000D03*
X204800000Y-107400000D03*
X202260000Y-107400000D03*
X199720000Y-107400000D03*
X197180000Y-107400000D03*
%TD*%
D17*
%TO.C,J2*%
X147320000Y-93400000D03*
D16*
X147320000Y-88900000D03*
%TD*%
D18*
%TO.C,Q2*%
X214960000Y-97500000D03*
D19*
X216230000Y-96230000D03*
X217500000Y-97500000D03*
%TD*%
D18*
%TO.C,Q1*%
X214960000Y-92500000D03*
D19*
X216230000Y-91230000D03*
X217500000Y-92500000D03*
%TD*%
D20*
%TO.C,LD1*%
X228000000Y-103500000D03*
X230500000Y-101000000D03*
X228000000Y-101000000D03*
%TD*%
D11*
%TO.C,H\u002A\u002A*%
X197680000Y-87270000D03*
%TD*%
%TO.C,H\u002A\u002A*%
X133350000Y-114300000D03*
%TD*%
D21*
%TO.C,Q5*%
X216000000Y-102200000D03*
D22*
X213460000Y-102200000D03*
X210920000Y-102200000D03*
%TD*%
D11*
%TO.C,H\u002A\u002A*%
X133350000Y-88900000D03*
%TD*%
D18*
%TO.C,Q3*%
X214930000Y-108360000D03*
D19*
X216200000Y-107090000D03*
X217470000Y-108360000D03*
%TD*%
D18*
%TO.C,Q4*%
X214930000Y-113470000D03*
D19*
X216200000Y-112200000D03*
X217470000Y-113470000D03*
%TD*%
M02*
